<svg xmlns="http://www.w3.org/2000/svg" width="121" height="26" viewBox="0 0 121 26" fill="none">
    <path d="M10.6287 19.7788C9.95 23.2692 7.86547 25.0185 4.37508 25.0265C1.45837 25.0265 0 23.8025 0 21.3544C0 20.8777 0.056557 20.3525 0.169671 19.7788L2.99349 5.23558C3.67218 1.74519 5.75266 0 9.23498 0C12.1598 0 13.6222 1.22406 13.6222 3.67218C13.6222 4.14887 13.5657 4.67002 13.4525 5.23558L12.786 8.67748H8.7502L9.41675 5.23558C9.59452 4.33068 9.28749 3.87416 8.49567 3.86609H8.47147C7.68773 3.86609 7.20698 4.32257 7.02925 5.23558L4.20545 19.7788C4.02767 20.6919 4.33471 21.1483 5.12652 21.1483C5.92636 21.1483 6.41521 20.6919 6.59295 19.7788L7.25953 16.3369H11.2953L10.6287 19.7788Z" fill="white"/>
    <path d="M22.4041 19.7788C21.7254 23.2692 19.6409 25.0185 16.1505 25.0265C13.2338 25.0265 11.7754 23.8025 11.7754 21.3544C11.7754 20.8777 11.8319 20.3525 11.9451 19.7788L14.7689 5.23558C15.4475 1.74519 17.528 0 21.0104 0C23.9352 0 25.3976 1.22406 25.3976 3.67218C25.3976 4.14887 25.341 4.67002 25.2279 5.23558L22.4041 19.7788ZM21.1921 5.23558C21.3699 4.33068 21.0629 3.87416 20.2711 3.86609H20.2468C19.4631 3.86609 18.9824 4.32257 18.8046 5.23558L15.9808 19.7788C15.8031 20.6919 16.1101 21.1483 16.9019 21.1483C17.7018 21.1483 18.1906 20.6919 18.3683 19.7788L21.1921 5.23558Z" fill="white"/>
    <path d="M27.8526 0.375732H33.4397C36.1302 0.383812 37.4754 1.58363 37.4754 3.97519C37.4754 4.46803 37.4148 5.01746 37.2936 5.62343L34.6152 19.4032C33.9365 22.8855 31.9046 24.6307 28.5192 24.6387H23.1382L27.8526 0.375732ZM31.137 4.24182L27.9253 20.7727H29.1252C29.917 20.7727 30.4018 20.3162 30.5795 19.4032L33.2579 5.62343C33.4356 4.70236 33.1286 4.24182 32.3368 4.24182H31.137Z" fill="white"/>
    <path d="M39.9919 0.375732H49.4935L48.7419 4.24182H43.2763L42.052 10.5681H46.7543L45.9911 14.4463H41.2888L40.0644 20.7727H45.5303L44.7791 24.6387H35.2773L39.9919 0.375732Z" fill="white"/>
    <path d="M50.7974 0.375732H56.0934C58.7841 0.383812 60.1295 1.58363 60.1295 3.97519C60.1295 4.46803 60.0686 5.01746 59.9476 5.62343L59.2569 9.19867C58.8287 11.3963 57.6691 12.8183 55.7785 13.4647L57.4993 24.6387H53.1002L52.3607 14.204H52.1427L50.1187 24.6387H46.083L50.7974 0.375732ZM54.0818 4.24182L52.8578 10.5681H53.3426C53.7789 10.5681 54.0655 10.5439 54.2028 10.4954C54.7523 10.2934 55.0917 9.86118 55.2208 9.19867L55.9119 5.62343C56.0896 4.70236 55.7824 4.24182 54.9909 4.24182H54.0818Z" fill="white"/>
    <path d="M62.912 0.375732H66.9477L64.9721 10.5681H67.3599L69.3351 0.375732H73.3711L68.6564 24.6387H64.6207L66.5963 14.4463H64.2085L62.2333 24.6387H58.1973L62.912 0.375732Z" fill="white"/>
    <path d="M81.7404 19.7788C81.0617 23.2692 78.9772 25.0185 75.4868 25.0265C72.57 25.0265 71.1118 23.8025 71.1118 21.3544C71.1118 20.8777 71.168 20.3525 71.2813 19.7788L74.105 5.23558C74.7837 1.74519 76.8644 0 80.3466 0C83.2715 0 84.734 1.22406 84.734 3.67218C84.734 4.14887 84.6774 4.67002 84.5641 5.23558L81.7404 19.7788ZM80.5285 5.23558C80.7061 4.33068 80.3989 3.87416 79.6074 3.86609H79.583C78.7992 3.86609 78.3187 4.32257 78.1411 5.23558L75.3169 19.7788C75.1393 20.6919 75.4465 21.1483 76.238 21.1483C77.0381 21.1483 77.5268 20.6919 77.7048 19.7788L80.5285 5.23558Z" fill="white"/>
    <path d="M93.758 19.7789C93.0793 23.2693 90.9948 25.0185 87.5044 25.0266C84.5876 25.0266 83.1294 23.8025 83.1294 21.3544C83.1294 20.8777 83.186 20.3525 83.2993 19.7789L87.0681 0.375732H91.1041L87.3349 19.7789C87.1569 20.6919 87.4641 21.1484 88.256 21.1484C89.0557 21.1484 89.5447 20.6919 89.7223 19.7789L93.4916 0.375732H97.5272L93.758 19.7789Z" fill="white"/>
    <path d="M98.1401 5.23558C98.8188 1.74519 100.899 0 104.382 0C107.307 0 108.769 1.22406 108.769 3.67218C108.769 4.14887 108.712 4.67002 108.599 5.23558L107.933 8.67748H103.897L104.564 5.23558C104.741 4.33068 104.434 3.87416 103.642 3.86609H103.618C102.834 3.86609 102.354 4.32257 102.176 5.23558L101.764 7.39283C101.57 8.37855 102.362 9.61473 104.139 11.1014C106.046 12.6769 106.785 14.5675 106.357 16.7732L105.775 19.7788C105.097 23.2773 103.016 25.0265 99.5339 25.0265C96.609 25.0185 95.1465 23.7904 95.1465 21.3422C95.1465 20.8656 95.2031 20.3444 95.3163 19.7788L95.983 16.3369H100.019L99.352 19.7788C99.1744 20.6919 99.4854 21.1483 100.285 21.1483C101.077 21.1483 101.562 20.6919 101.739 19.7788L102.273 17.0641C102.475 15.9895 101.687 14.7089 99.9097 13.2223C98.0028 11.6467 97.2675 9.72782 97.7038 7.46555L98.1401 5.23558Z" fill="white"/>
    <path d="M111.225 0.375732H120.726L119.975 4.24182H114.509L113.285 10.5681H117.987L117.224 14.4463H112.521L111.297 20.7727H116.763L116.012 24.6387H106.51L111.225 0.375732Z" fill="white"/>
</svg>